HIERARCHY
ROOT Hips
{
	OFFSET 0.0000 0.0000 0.0000
	CHANNELS 6 Xposition Yposition Zposition Zrotation Xrotation Yrotation
	JOINT Spine1
	{
		OFFSET -0.0137 5.0038 -0.0537
		CHANNELS 3 Zrotation Xrotation Yrotation
		JOINT Spine2
		{
			OFFSET -0.0000 7.1253 -0.0298
			CHANNELS 3 Zrotation Xrotation Yrotation
			JOINT Chest
			{
				OFFSET -0.0000 7.5501 -0.8160
				CHANNELS 3 Zrotation Xrotation Yrotation
				JOINT Neck1
				{
					OFFSET -0.1817 26.3113 -0.5533
					CHANNELS 3 Zrotation Xrotation Yrotation
					JOINT Neck2
					{
						OFFSET -0.0000 7.7094 2.3026
						CHANNELS 3 Zrotation Xrotation Yrotation
						JOINT Head
						{
							OFFSET -0.0000 6.1289 1.9537
							CHANNELS 3 Zrotation Xrotation Yrotation
							JOINT Jaw
							{
								OFFSET 0.0026 0.4756 3.0949
								CHANNELS 3 Zrotation Xrotation Yrotation
								End Site
								{
									OFFSET 0.0 1.0 0.0
								}
							}
							JOINT LeftEye
							{
								OFFSET 3.2064 5.3802 7.5869
								CHANNELS 3 Zrotation Xrotation Yrotation
								End Site
								{
									OFFSET 0.0 1.0 0.0
								}
							}
							JOINT RightEye
							{
								OFFSET -3.2224 5.3619 7.5582
								CHANNELS 3 Zrotation Xrotation Yrotation
								End Site
								{
									OFFSET 0.0 1.0 0.0
								}
							}
						}
					}
				}
				JOINT LeftShoulder
				{
					OFFSET 1.6217 23.2372 5.1134
					CHANNELS 3 Zrotation Xrotation Yrotation
					JOINT LeftArm
					{
						OFFSET 14.9198 0.0000 -5.5023
						CHANNELS 3 Zrotation Xrotation Yrotation
						JOINT LeftForeArm
						{
							OFFSET 28.7393 0.0000 -0.0026
							CHANNELS 3 Zrotation Xrotation Yrotation
							JOINT LeftHand
							{
								OFFSET 27.0940 -0.0000 0.0026
								CHANNELS 3 Zrotation Xrotation Yrotation
								JOINT LeftHandThumbEnd
								{
									OFFSET 12.2686 -3.2202 4.8331
									CHANNELS 3 Zrotation Xrotation Yrotation
									End Site
									{
										OFFSET 0.0 1.0 0.0
									}
								}
								JOINT LeftHandMiddleEnd
								{
									OFFSET 19.0120 -0.3129 -0.0340
									CHANNELS 3 Zrotation Xrotation Yrotation
									End Site
									{
										OFFSET 0.0 1.0 0.0
									}
								}
							}
						}
					}
				}
				JOINT RightShoulder
				{
					OFFSET -1.3801 23.1803 5.2142
					CHANNELS 3 Zrotation Xrotation Yrotation
					JOINT RightArm
					{
						OFFSET -15.0372 0.0000 -5.5456
						CHANNELS 3 Zrotation Xrotation Yrotation
						JOINT RightForeArm
						{
							OFFSET -28.7366 0.0000 -0.0026
							CHANNELS 3 Zrotation Xrotation Yrotation
							JOINT RightHand
							{
								OFFSET -27.1336 -0.0000 0.0026
								CHANNELS 3 Zrotation Xrotation Yrotation
								JOINT RightHandThumbEnd
								{
									OFFSET -12.2642 -3.2115 4.8040
									CHANNELS 3 Zrotation Xrotation Yrotation
									End Site
									{
										OFFSET 0.0 1.0 0.0
									}
								}
								JOINT RightHandMiddleEnd
								{
									OFFSET -19.0006 -0.3066 -0.0316
									CHANNELS 3 Zrotation Xrotation Yrotation
									End Site
									{
										OFFSET 0.0 1.0 0.0
									}
								}
							}
						}
					}
				}
			}
		}
	}
	JOINT LeftLeg
	{
		OFFSET 10.0432 -8.4345 2.5957
		CHANNELS 3 Zrotation Xrotation Yrotation
		JOINT LeftShin
		{
			OFFSET -0.0000 -43.2218 -0.8029
			CHANNELS 3 Zrotation Xrotation Yrotation
			JOINT LeftFoot
			{
				OFFSET 0.0000 -42.1551 -3.4815
				CHANNELS 3 Zrotation Xrotation Yrotation
				JOINT LeftToeBase
				{
					OFFSET 0.0000 -5.0595 13.2315
					CHANNELS 3 Zrotation Xrotation Yrotation
					End Site
					{
						OFFSET 0.0 1.0 0.0
					}
				}
			}
		}
	}
	JOINT RightLeg
	{
		OFFSET -10.0473 -8.2953 2.6203
		CHANNELS 3 Zrotation Xrotation Yrotation
		JOINT RightShin
		{
			OFFSET 0.0000 -43.3622 -0.8056
			CHANNELS 3 Zrotation Xrotation Yrotation
			JOINT RightFoot
			{
				OFFSET 0.0000 -42.1174 -3.4784
				CHANNELS 3 Zrotation Xrotation Yrotation
				JOINT RightToeBase
				{
					OFFSET -0.0000 -5.0796 13.2842
					CHANNELS 3 Zrotation Xrotation Yrotation
					End Site
					{
						OFFSET 0.0 1.0 0.0
					}
				}
			}
		}
	}
}
MOTION
Frames: 10
Frame Time: 0.033333
-45.2913 93.5642 -184.6354 -1.3715 -10.2915 -0.5720 -2.8389 5.9397 1.5636 -2.6597 -2.3183 3.7380 -11.2439 22.1681 -0.6193 0.3495 9.0445 2.1832 -0.4918 -3.4093 0.1353 11.7730 4.6947 -2.5435 -0.1263 -0.0965 0.3089 0.6339 -10.4676 -3.4704 -0.9037 -10.4654 4.1440 -5.6754 13.2085 -16.8333 -81.0917 -31.0632 -2.1822 0.2353 0.0808 -108.6834 35.9040 39.7737 38.5298 -15.1908 10.3088 14.5250 -58.5374 1.6916 2.5512 -21.2827 19.6577 20.9007 106.2462 -39.1083 -38.4540 2.0585 1.4528 115.0779 13.7810 38.1060 -17.0656 14.9240 7.1117 -15.9772 49.1847 -3.6085 -5.3599 13.4795 -24.2455 8.4281 -0.1931 20.2218 -0.3900 -15.7203 16.8955 1.0372 1.6380 -0.8486 -2.2327 -0.8349 5.4299 -13.6444 0.1109 34.2761 0.6693 2.1882 -28.4998 0.8602 -1.4804 0.4622 1.1256
-46.3574 93.6345 -186.3959 -1.0606 -11.2284 -0.6290 -2.8794 5.8802 1.5261 -2.6524 -2.3120 3.7240 -11.1792 22.4324 -0.6831 -0.0022 10.1124 2.2942 -0.4848 -3.4093 0.1853 11.6704 4.8693 -2.3395 -0.1373 -0.0966 0.3106 0.6194 -10.5128 -3.4777 -0.9113 -10.5114 4.1590 -5.7176 13.5019 -16.4896 -81.1602 -30.6115 -1.6780 0.0348 0.1467 -108.9275 35.8014 40.0528 38.8496 -15.3302 10.3617 14.5507 -58.3945 1.7122 2.4961 -20.8058 20.0188 20.7070 105.8998 -39.4502 -36.9436 1.9338 1.5531 114.2840 14.1201 38.1895 -16.7417 14.8399 7.1416 -15.9573 49.1747 -3.6481 -5.2673 13.3744 -22.6220 8.4602 -0.1750 19.3311 -0.3806 -16.3936 16.2992 0.5376 1.6438 -0.8801 -2.2145 -0.6530 4.9915 -14.3740 0.1226 34.9601 0.5634 0.9213 -27.9313 1.3910 -1.4799 0.5596 1.1214
-47.2186 93.9115 -187.9214 -0.8086 -11.5978 -0.4070 -2.7878 5.7499 1.4442 -2.5872 -2.3363 3.8059 -11.0884 22.3445 -0.7927 -0.1846 10.6207 2.4400 -0.5117 -3.4287 0.0760 11.7257 5.0733 -2.4146 -0.1404 -0.1128 0.3060 0.6194 -10.5283 -3.4821 -0.9173 -10.5399 4.1558 -5.8641 13.6326 -16.2403 -80.8436 -30.1518 -1.6168 0.0301 0.1123 -108.7869 35.6984 40.2602 39.6889 -15.5392 10.3674 14.5961 -58.3203 1.6742 2.4565 -20.2159 20.3652 20.7551 105.7800 -39.4457 -36.1927 2.0416 1.5126 113.6890 14.1421 38.1107 -17.1335 14.8106 7.0189 -15.7913 49.0711 -3.6889 -5.1169 12.9598 -20.6179 8.1366 -0.0818 16.5999 -0.2756 -14.0473 15.7702 1.8593 1.6493 -0.8183 -2.1619 -0.1652 4.6004 -14.7078 0.0817 34.5143 0.4114 0.0327 -26.8267 1.0170 -1.4816 0.5450 1.1108
-47.9411 94.3463 -189.4038 -0.5093 -11.5440 0.1434 -2.6425 5.6519 1.3634 -2.4934 -2.4109 3.8311 -10.9839 22.1231 -0.8749 -0.2243 10.5846 2.4798 -0.5169 -3.4787 -0.0757 11.7930 5.0784 -2.7637 -0.1353 -0.1373 0.2957 0.6200 -10.5155 -3.4833 -0.9072 -10.5402 4.1362 -6.0030 13.6702 -16.1804 -80.4810 -29.8879 -1.7058 0.0685 0.0613 -108.4684 35.8553 40.4262 41.0401 -15.7335 10.3325 14.6622 -58.3840 1.5728 2.4301 -19.6824 20.6645 20.9407 106.0166 -39.2924 -36.3525 2.2496 1.3350 113.3230 13.8717 38.2532 -17.8584 14.8041 6.9015 -15.6731 49.0266 -3.7079 -4.9952 12.3278 -18.8327 7.4609 0.0456 13.0920 -0.1532 -10.8376 14.4226 3.9144 1.6323 -0.9044 -2.1290 0.3810 3.9832 -14.9247 0.0332 33.5955 0.2474 -0.5792 -25.4362 0.1729 -1.4822 0.5144 1.0800
-48.5530 94.8847 -190.9028 -0.0405 -11.2099 0.9885 -2.5444 5.5859 1.2591 -2.3986 -2.5054 3.8581 -10.9219 21.9081 -0.9810 -0.1515 10.1912 2.4192 -0.5432 -3.5103 -0.2594 11.9040 4.9728 -3.2998 -0.1283 -0.1538 0.2783 0.6212 -10.5009 -3.4955 -0.8937 -10.5370 4.1126 -6.1477 13.6389 -16.2839 -80.0335 -29.9022 -1.9319 0.1015 0.0034 -108.0102 36.0832 40.5240 42.4327 -15.8575 10.2997 14.7524 -58.5266 1.4620 2.4217 -19.2465 20.8859 21.1193 106.4637 -39.2011 -37.0226 2.4286 1.2721 113.1237 13.5301 38.5266 -18.6276 14.7699 6.8282 -15.6454 49.0150 -3.7198 -4.9960 11.3033 -17.5645 7.0397 0.1595 9.8740 -0.0125 -7.9644 12.2731 5.7622 1.6128 -1.2693 -2.1291 0.7214 3.0993 -15.2017 0.0056 32.5232 0.1167 -1.1014 -23.8880 -0.7479 -1.4830 0.5139 1.0312
-49.0748 95.4313 -192.4065 0.4987 -10.7446 2.1277 -2.4520 5.5640 1.1587 -2.3221 -2.5970 3.7970 -10.8359 21.7522 -1.0572 -0.0281 9.6112 2.3191 -0.5701 -3.5113 -0.4845 12.0139 4.8783 -3.8539 -0.1241 -0.1631 0.2654 0.6280 -10.5057 -3.5088 -0.8913 -10.5472 4.0984 -6.2354 13.5712 -16.4717 -79.5872 -30.1544 -2.2824 0.1023 -0.0491 -107.4556 36.2475 40.4562 43.6711 -15.9284 10.2590 14.7964 -58.6419 1.3779 2.4135 -19.0034 21.0544 21.2043 106.9199 -39.2398 -37.7565 2.4212 1.3137 113.1079 13.2048 38.9208 -19.4748 14.7513 6.8313 -15.6768 49.1411 -3.7009 -5.0486 10.0175 -16.8307 7.1885 0.2234 7.6385 0.0955 -6.3432 10.1925 6.7628 1.6008 -1.6753 -2.1599 0.8897 2.0763 -15.6172 -0.0080 31.3967 0.0231 -1.5942 -22.3348 -1.6163 -1.4801 0.5879 0.9776
-49.4955 95.9354 -193.9053 1.0109 -10.2049 3.5476 -2.3409 5.5575 1.0775 -2.2421 -2.6254 3.7145 -10.7071 21.6070 -1.1763 0.1805 8.9408 2.2144 -0.6413 -3.4810 -0.7868 12.1150 4.8284 -4.3877 -0.1237 -0.1627 0.2616 0.6334 -10.4974 -3.5158 -0.8955 -10.5448 4.0981 -6.2698 13.5097 -16.7218 -79.1058 -30.5785 -2.7957 0.1337 -0.1341 -106.7899 36.2034 40.1518 44.5801 -15.9403 10.2493 14.8637 -58.7163 1.3395 2.4182 -18.8813 21.1414 21.1932 107.2455 -39.3814 -38.3795 2.2798 1.4266 113.1558 12.9437 39.1958 -20.3301 14.7438 6.8740 -15.7349 49.2763 -3.6758 -5.1412 8.6073 -16.5142 7.8758 0.2266 6.6378 0.1466 -5.9578 8.9950 6.8134 1.5899 -1.9104 -2.1991 0.9798 0.9852 -16.2195 -0.0154 30.2433 -0.0285 -2.0577 -20.8216 -2.4884 -1.4784 0.6972 0.9245
-49.9022 96.3931 -195.4585 1.4566 -9.6498 5.1792 -2.2307 5.5710 0.9746 -2.1683 -2.6267 3.6183 -10.5420 21.5144 -1.3258 0.5011 8.2658 2.0698 -0.7538 -3.4476 -1.0708 12.2393 4.9076 -4.9213 -0.1298 -0.1609 0.2693 0.6330 -10.5039 -3.5163 -0.9064 -10.5524 4.1135 -6.2350 13.5165 -17.0107 -78.6352 -31.1415 -3.4623 0.1971 -0.2716 -106.0805 36.0318 39.7744 45.2002 -15.9221 10.2287 14.9116 -58.7661 1.3319 2.4271 -18.8322 21.1841 21.1273 107.5273 -39.5401 -39.0353 2.1347 1.5146 113.2418 12.8141 39.5817 -21.1144 14.7801 6.9302 -15.8010 49.4343 -3.6572 -5.2050 7.2340 -16.4979 8.8763 0.1928 6.9752 0.1413 -6.4740 8.3546 6.1477 1.5793 -2.0021 -2.2332 1.0593 -0.1265 -16.9676 -0.0234 29.1103 -0.0676 -2.4514 -19.3862 -3.4019 -1.4767 0.8102 0.8833
-50.2217 96.8290 -196.9129 1.7949 -9.0644 6.9030 -2.0966 5.6011 0.9221 -2.0976 -2.6345 3.4570 -10.3637 21.4500 -1.4702 0.9011 7.6603 1.9256 -0.8735 -3.4202 -1.3486 12.3685 5.0253 -5.4521 -0.1376 -0.1599 0.2807 0.6309 -10.5040 -3.5106 -0.9193 -10.5533 4.1326 -6.1701 13.6019 -17.3430 -78.2309 -31.6929 -4.1643 0.2698 -0.3803 -105.4067 35.7549 39.4242 45.5524 -15.8828 10.1993 14.9302 -58.7476 1.3512 2.4200 -18.7689 21.1726 21.0653 107.6821 -39.6672 -39.7246 2.0301 1.6156 113.3169 12.8275 40.1247 -21.7580 14.8215 6.9762 -15.8428 49.5212 -3.6387 -5.2153 6.0736 -16.5257 10.0529 0.1498 8.1601 0.1108 -7.2047 7.7217 5.3053 1.5722 -2.0263 -2.2645 1.2077 -1.2373 -17.7508 -0.0393 27.9866 -0.1084 -2.7995 -18.0014 -4.3293 -1.4771 0.8819 0.8584
-50.5566 97.2381 -198.3746 2.0430 -8.4577 8.6585 -1.9764 5.6299 0.8294 -2.0248 -2.6253 3.3257 -10.2024 21.3844 -1.6299 1.3869 7.1308 1.7694 -0.9854 -3.4118 -1.6408 12.5147 5.1726 -5.8843 -0.1442 -0.1590 0.2844 0.6268 -10.5043 -3.5127 -0.9268 -10.5534 4.1413 -6.0649 13.7344 -17.6604 -77.8550 -32.1719 -4.9625 0.3843 -0.4607 -104.7817 35.4391 39.1120 45.7554 -15.8163 10.1820 14.9396 -58.7140 1.3659 2.3970 -18.6576 21.0720 20.9957 107.6668 -39.7568 -40.2966 1.8773 1.7220 113.3953 12.9721 40.7629 -22.2852 14.8644 7.0035 -15.8931 49.5924 -3.6542 -5.2308 5.1990 -16.5284 11.1038 0.1074 9.9829 0.0618 -7.8635 6.7979 4.4248 1.5787 -2.0406 -2.2834 1.4008 -2.2899 -18.5852 -0.0457 26.7797 -0.1298 -3.1386 -16.6300 -5.2392 -1.4772 0.9285 0.8348
